<svg width="20" height="20" viewBox="0 0 20 20" fill="none" xmlns="http://www.w3.org/2000/svg">
<path d="M14.3791 18.0001H3.99809C2.89762 18.0001 2 17.1115 2 16.0222V5.84165C2 4.75231 2.89762 3.86377 3.99809 3.86377H11.5949V4.86777H3.99809C3.45546 4.86777 3.01426 5.30451 3.01426 5.84165V16.0172C3.01426 16.5543 3.45546 16.9911 3.99809 16.9911H14.3791C14.9217 16.9911 15.3629 16.5543 15.3629 16.0172V8.05045H16.3772V16.0172C16.3772 17.1115 15.4796 18.0001 14.3791 18.0001Z" fill="#323232"/>
<path d="M7.29449 13.4167C7.06628 13.4167 6.84821 13.3264 6.68593 13.1657C6.49829 12.975 6.41208 12.7189 6.44251 12.4529L6.73157 10.2692C6.74679 10.1588 6.7975 10.0583 6.87357 9.97803L14.298 2.62875C15.1449 1.79042 16.5243 1.79042 17.3712 2.62875C17.7769 3.03035 18 3.56247 18 4.12973C18 4.69699 17.7769 5.22911 17.3712 5.63071L9.92651 13.0051C9.84536 13.0854 9.73887 13.1356 9.6273 13.1507L7.39592 13.4167C7.36549 13.4117 7.32999 13.4167 7.29449 13.4167ZM7.72049 10.5654L7.47706 12.3876L9.33823 12.1667L16.6612 4.91787C16.8742 4.70703 16.9909 4.42591 16.9909 4.12973C16.9909 3.83355 16.8742 3.55243 16.6612 3.34159C16.2099 2.89481 15.4745 2.89481 15.0232 3.34159L7.72049 10.5654Z" fill="#323232"/>
</svg>
